<svg width="400" height="392" viewBox="0 0 400 392" fill="none" xmlns="http://www.w3.org/2000/svg">
<g clip-path="url(#clip0_785_4134)">
<path d="M154.441 356.623L144.024 366.272L152.302 352.296C145.78 340.395 135.113 330.111 135.113 330.111C135.113 330.111 112.984 351.444 112.984 368.213C112.984 384.982 122.891 390.837 135.113 390.837C147.335 390.837 157.243 384.982 157.243 368.213C157.243 364.48 156.145 360.522 154.441 356.623Z" fill="#F2F2F2"/>
<path d="M141.345 366.794V367.621C141.296 377.229 139.686 384.725 136.526 390.004C136.481 390.082 136.432 390.155 136.388 390.233L136.034 390.016L135.696 389.804C139.202 384.103 140.442 376.046 140.487 367.666C140.491 367.396 140.495 367.122 140.491 366.847C140.479 363.3 140.263 359.711 139.918 356.225C139.893 355.955 139.865 355.68 139.836 355.406C139.356 350.807 138.665 346.412 137.957 342.594C137.909 342.324 137.856 342.054 137.803 341.788C136.579 335.331 135.33 330.654 135.046 329.619C135.013 329.492 134.993 329.422 134.989 329.406L135.375 329.295L135.379 329.291L135.769 329.181C135.774 329.197 135.843 329.43 135.956 329.864C136.392 331.485 137.522 335.883 138.633 341.686C138.681 341.948 138.734 342.218 138.783 342.488C139.36 345.586 139.926 349.047 140.373 352.681C140.487 353.594 140.589 354.494 140.678 355.382C140.711 355.656 140.739 355.93 140.764 356.2C141.138 359.969 141.332 363.5 141.345 366.794Z" fill="white"/>
<path d="M138.633 341.686C138.36 341.723 138.083 341.759 137.803 341.788C137.041 341.867 136.275 341.907 135.509 341.907C132.244 341.911 129.02 341.178 126.074 339.763C125.903 339.979 125.732 340.196 125.558 340.417C128.657 341.939 132.061 342.729 135.509 342.725C136.327 342.725 137.144 342.681 137.957 342.594C138.234 342.566 138.511 342.529 138.783 342.488C141.032 342.163 143.219 341.497 145.27 340.511C145.095 340.286 144.924 340.065 144.757 339.849C142.817 340.761 140.753 341.38 138.633 341.686Z" fill="white"/>
<path d="M140.678 355.382C140.398 355.398 140.117 355.406 139.836 355.406C139.751 355.41 139.661 355.41 139.576 355.41C136.038 355.41 132.553 354.55 129.418 352.902C126.282 351.254 123.589 348.867 121.568 345.946C121.405 346.187 121.243 346.428 121.084 346.674C123.19 349.63 125.966 352.039 129.182 353.7C132.398 355.362 135.961 356.229 139.576 356.229C139.69 356.229 139.804 356.229 139.918 356.225C140.202 356.221 140.483 356.212 140.764 356.2C145.106 355.976 149.292 354.499 152.822 351.944C152.692 351.703 152.562 351.462 152.427 351.22C148.997 353.728 144.914 355.174 140.678 355.382Z" fill="white"/>
<path d="M141.345 366.794C141.06 366.819 140.776 366.835 140.491 366.847C140.186 366.86 139.881 366.868 139.576 366.868C134.822 366.862 130.198 365.308 126.396 362.437C122.594 359.566 119.819 355.533 118.485 350.942C118.302 351.273 118.119 351.601 117.944 351.932C119.447 356.512 122.346 360.5 126.229 363.328C130.112 366.156 134.782 367.681 139.576 367.686C139.881 367.686 140.186 367.682 140.487 367.666C140.776 367.658 141.06 367.641 141.345 367.621C147.095 367.168 152.46 364.534 156.352 360.251C156.266 359.948 156.169 359.65 156.071 359.347C152.312 363.662 147.03 366.333 141.345 366.794Z" fill="white"/>
<path d="M399.421 20.9681H0.578871C0.425691 20.9675 0.278976 20.9059 0.170848 20.7968C0.0627195 20.6876 0.0019989 20.5398 0.0019989 20.3856C0.0019989 20.2315 0.0627195 20.0837 0.170848 19.9745C0.278976 19.8653 0.425691 19.8037 0.578871 19.8032H399.421C399.574 19.8037 399.721 19.8653 399.829 19.9745C399.937 20.0837 399.998 20.2315 399.998 20.3856C399.998 20.5398 399.937 20.6876 399.829 20.7968C399.721 20.9059 399.574 20.9675 399.421 20.9681Z" fill="#CACACA"/>
<path d="M13.608 12.8138C17.1248 12.8138 19.9756 9.94535 19.9756 6.40691C19.9756 2.86847 17.1248 0 13.608 0C10.0913 0 7.24046 2.86847 7.24046 6.40691C7.24046 9.94535 10.0913 12.8138 13.608 12.8138Z" fill="#3F3D56"/>
<path d="M35.6051 12.8138C39.1218 12.8138 41.9727 9.94535 41.9727 6.40691C41.9727 2.86847 39.1218 0 35.6051 0C32.0884 0 29.2375 2.86847 29.2375 6.40691C29.2375 9.94535 32.0884 12.8138 35.6051 12.8138Z" fill="#3F3D56"/>
<path d="M57.6022 12.8138C61.119 12.8138 63.9698 9.94535 63.9698 6.40691C63.9698 2.86847 61.119 0 57.6022 0C54.0855 0 51.2347 2.86847 51.2347 6.40691C51.2347 9.94535 54.0855 12.8138 57.6022 12.8138Z" fill="#3F3D56"/>
<path d="M386.242 3.91889H370.612C370.306 3.91783 370.012 3.79463 369.796 3.57629C369.58 3.35795 369.458 3.06226 369.458 2.75401C369.458 2.44575 369.58 2.15006 369.796 1.93172C370.012 1.71338 370.306 1.59018 370.612 1.58912H386.242C386.394 1.58859 386.545 1.61832 386.686 1.67663C386.827 1.73493 386.955 1.82066 387.063 1.92888C387.171 2.0371 387.256 2.16569 387.315 2.30729C387.373 2.44888 387.403 2.60069 387.403 2.75401C387.403 2.90732 387.373 3.05913 387.315 3.20072C387.256 3.34232 387.171 3.47091 387.063 3.57913C386.955 3.68735 386.827 3.77308 386.686 3.83138C386.545 3.88969 386.394 3.91942 386.242 3.91889Z" fill="#3F3D56"/>
<path d="M386.242 8.28724H370.612C370.306 8.28617 370.012 8.16298 369.796 7.94463C369.58 7.72629 369.458 7.4306 369.458 7.12235C369.458 6.81409 369.58 6.51841 369.796 6.30006C370.012 6.08172 370.306 5.95852 370.612 5.95746H386.242C386.394 5.95693 386.545 5.98667 386.686 6.04497C386.827 6.10327 386.955 6.189 387.063 6.29722C387.171 6.40544 387.256 6.53403 387.315 6.67563C387.373 6.81722 387.403 6.96903 387.403 7.12235C387.403 7.27566 387.373 7.42747 387.315 7.56907C387.256 7.71066 387.171 7.83925 387.063 7.94747C386.955 8.0557 386.827 8.14142 386.686 8.19972C386.545 8.25803 386.394 8.28777 386.242 8.28724Z" fill="#3F3D56"/>
<path d="M386.242 12.6556H370.612C370.306 12.6545 370.012 12.5313 369.796 12.313C369.58 12.0946 369.458 11.799 369.458 11.4907C369.458 11.1824 369.58 10.8868 369.796 10.6684C370.012 10.4501 370.306 10.3269 370.612 10.3258H386.242C386.394 10.3253 386.545 10.355 386.686 10.4133C386.827 10.4716 386.955 10.5574 387.063 10.6656C387.171 10.7738 387.256 10.9024 387.315 11.044C387.373 11.1856 387.403 11.3374 387.403 11.4907C387.403 11.644 387.373 11.7958 387.315 11.9374C387.256 12.079 387.171 12.2076 387.063 12.3158C386.955 12.4241 386.827 12.5098 386.686 12.5681C386.545 12.6264 386.394 12.6561 386.242 12.6556Z" fill="#3F3D56"/>
<path d="M377.52 47.3084H12.0155V242.154H377.52V47.3084Z" fill="#F0F0F0"/>
<path d="M377.52 83.7803V81.8695H306.371V47.3084H304.472V81.8695H233.322V47.3084H231.423V81.8695H160.274V47.3084H158.375V81.8695H87.2251V47.3084H85.326V81.8695H12.0154V83.7803H85.326V121.961H12.0154V123.872H85.326V162.053H12.0154V163.964H85.326V202.138H12.0154V204.049H85.326V242.154H87.2251V204.049H158.375V242.154H160.274V204.049H231.423V242.154H233.322V204.049H304.472V242.154H306.371V204.049H377.52V202.138H306.371V163.964H377.52V162.053H306.371V123.872H377.52V121.961H306.371V83.7803L377.52 83.7803ZM158.375 202.138H87.2251V163.964H158.375V202.138ZM158.375 162.053H87.2251V123.872H158.375V162.053ZM158.375 121.961H87.2251V83.7803H158.375V121.961ZM231.423 202.138H160.274V163.964H231.423V202.138ZM231.423 162.053H160.274V123.872H231.423V162.053ZM231.423 121.962H160.274V83.7803H231.423V121.962ZM304.472 202.138H233.322V163.964H304.472V202.138ZM304.472 162.053H233.322V123.872H304.472V162.053ZM304.472 121.962H233.322V83.7804H304.472V121.962Z" fill="white"/>
<path d="M125.832 93.0658H101.379V116.885H125.832V93.0658Z" fill="#CACACA"/>
<path d="M350.957 170.192H326.505V194.011H350.957V170.192Z" fill="#CACACA"/>
<path d="M133.428 209.798H108.975V233.617H133.428V209.798Z" fill="#CACACA"/>
<path d="M140.655 88.6466H116.202V112.466H140.655V88.6466Z" fill="#36C7FA"/>
<path d="M255.6 187.658L284.617 161.646L293.178 165.913L258.376 202.641L255.6 187.658Z" fill="#FFB6B6"/>
<path d="M288.436 170.586C292.25 170.586 295.342 167.475 295.342 163.638C295.342 159.8 292.25 156.689 288.436 156.689C284.622 156.689 281.531 159.8 281.531 163.638C281.531 167.475 284.622 170.586 288.436 170.586Z" fill="#FFB6B6"/>
<path d="M228.44 383.449H221.573L218.307 356.802L228.44 356.802L228.44 383.449Z" fill="#FFB6B6"/>
<path d="M230.19 390.145L208.052 390.144V389.863C208.052 387.563 208.96 385.358 210.576 383.732C212.192 382.106 214.383 381.193 216.669 381.193L230.191 381.193L230.19 390.145Z" fill="#2F2E41"/>
<path d="M203.579 383.449H196.713L193.446 356.802L203.58 356.802L203.579 383.449Z" fill="#FFB6B6"/>
<path d="M205.33 390.145L183.191 390.144V389.863C183.191 387.563 184.099 385.358 185.715 383.732C187.331 382.106 189.523 381.193 191.808 381.193L205.33 381.193L205.33 390.145Z" fill="#2F2E41"/>
<path d="M234.206 231.129C234.206 231.129 251.47 229.739 245.946 260.312C240.421 290.885 228.978 374.516 228.978 374.516L218.603 375.951L212.474 264.389L207.837 375.951L194.642 374.516L181.723 254.754C181.723 254.754 177.575 245.124 181.72 238.474C185.866 231.824 234.206 231.129 234.206 231.129Z" fill="#2F2E41"/>
<path d="M223.157 155.392L227.95 152.808C227.95 152.808 239.76 151.795 244.579 165.753L257.361 185.177L278.078 167.112L287.055 173.365L260.946 204.719L250.089 206.115L226.61 175.542L223.157 155.392Z" fill="#3F3D56"/>
<path d="M205.764 99.018C186.07 99.018 180.558 120.785 180.558 133.065C180.558 145.345 191.843 143.487 205.764 143.487C211.739 143.487 217.225 143.827 221.545 143.246L223.623 138.141L225.295 142.371C228.841 141.06 230.97 138.396 230.97 133.065C230.97 120.785 226.136 99.018 205.764 99.018Z" fill="#2F2E41"/>
<path d="M205.68 143.467C215.047 143.467 222.641 135.826 222.641 126.401C222.641 116.976 215.047 109.335 205.68 109.335C196.312 109.335 188.718 116.976 188.718 126.401C188.718 135.826 196.312 143.467 205.68 143.467Z" fill="#FFB6B6"/>
<path d="M186.083 124.727H192.791L195.751 116.389L196.342 124.727H199.549L201.275 119.863L201.62 124.727H225.445C225.445 119.936 223.553 115.34 220.186 111.952C216.819 108.565 212.252 106.661 207.49 106.661H204.037C199.275 106.661 194.709 108.565 191.341 111.952C187.974 115.34 186.083 119.936 186.083 124.727Z" fill="#2F2E41"/>
<path d="M299.485 137.285H275.033V161.104H299.485V137.285Z" fill="#36C7FA"/>
<path d="M239.573 224.842C236.968 224.876 229.124 178.045 229.124 178.045L227.95 152.808L219.379 152.519V151.951C219.379 150.812 218.93 149.72 218.129 148.914C217.329 148.109 216.243 147.656 215.111 147.656H198.787C197.703 147.657 196.66 148.073 195.869 148.82C195.079 149.567 194.601 150.589 194.533 151.678L187.812 151.451L176.171 188.662C176.171 188.662 186.897 223.237 181.72 238.474C181.72 238.474 232.158 242.832 241.814 233.159C241.814 233.159 242.177 224.808 239.573 224.842Z" fill="#3F3D56"/>
<path d="M190.7 156.087L187.811 151.451C187.811 151.451 178.413 149.113 174.543 155.379C170.674 161.646 159.3 195.6 159.3 195.6L171.04 199.769L184.362 180.977L190.7 156.087Z" fill="#3F3D56"/>
<path d="M220.07 180.365H195.618V204.184H220.07V180.365Z" fill="#36C7FA"/>
<path d="M176.857 188.974L168.35 188.068C167.812 189.221 167.543 190.482 167.562 191.755C167.58 193.029 167.886 194.281 168.457 195.418C169.028 196.555 169.848 197.546 170.855 198.317C171.863 199.087 173.032 199.617 174.273 199.867L207.934 206.626L204.422 195.746L176.857 188.974Z" fill="#FFB6B6"/>
<path d="M208.035 206.752C211.849 206.752 214.941 203.641 214.941 199.803C214.941 195.966 211.849 192.855 208.035 192.855C204.221 192.855 201.129 195.966 201.129 199.803C201.129 203.641 204.221 206.752 208.035 206.752Z" fill="#FFB6B6"/>
<path d="M199.414 206.963L173.77 201.067C171.912 200.635 170.196 199.727 168.789 198.432C167.382 197.136 166.33 195.497 165.737 193.674L164.701 190.458L171.356 185.188L201.847 193.763L199.414 206.963Z" fill="#3F3D56"/>
<path d="M343.516 391.543H80.4092C80.226 391.543 80.0504 391.47 79.9209 391.34C79.7914 391.209 79.7186 391.033 79.7186 390.848C79.7186 390.664 79.7914 390.487 79.9209 390.357C80.0504 390.227 80.226 390.154 80.4092 390.154H343.516C343.699 390.154 343.875 390.227 344.004 390.357C344.134 390.487 344.207 390.664 344.207 390.848C344.207 391.033 344.134 391.209 344.004 391.34C343.875 391.47 343.699 391.543 343.516 391.543Z" fill="#CACACA"/>
</g>
<defs>
<clipPath id="clip0_785_4134">
<rect width="400" height="391.543" fill="white"/>
</clipPath>
</defs>
</svg>
